<?xml version='1.0' encoding='iso-8859-1'?>
<svg version="1.1" xmlns="http://www.w3.org/2000/svg" viewBox="0 0 470 470" xmlns:xlink="http://www.w3.org/1999/xlink" enable-background="new 0 0 470 470">
  <g>
    <path d="m377.479,90h-22.5v-22.5c0-4.142-3.357-7.5-7.5-7.5h-41.24c-4.143,0-7.5,3.358-7.5,7.5v22.5h-15v-22.5c0-4.142-3.357-7.5-7.5-7.5h-41.239c-4.143,0-7.5,3.358-7.5,7.5v22.5h-26.938v-22.5c0-4.142-3.357-7.5-7.5-7.5h-3.099l-4.427-53.123c-0.323-3.887-3.573-6.877-7.473-6.877h-40.542c-3.9,0-7.15,2.99-7.474,6.877l-4.427,53.123h-3.099c-4.143,0-7.5,3.358-7.5,7.5v22.5h-22.5c-4.143,0-7.5,3.358-7.5,7.5v365c0,4.142 3.357,7.5 7.5,7.5h284.959c4.143,0 7.5-3.358 7.5-7.5v-365c-0.001-4.142-3.358-7.5-7.501-7.5zm-7.5,365h-269.958v-350h269.959v350zm-198.819-440l3.751,45h-34.241l3.751-45h26.739zm-41.14,60h53.023c0.022,0 2.519,0 2.519,0v15h-55.542v-15zm138.718,0v15h-26.239v-15h26.239zm71.24,0v15h-26.24v-15h26.24z"/>
    <path d="m347.479,425h-41.24c-4.143,0-7.5,3.358-7.5,7.5s3.357,7.5 7.5,7.5h41.24c4.143,0 7.5-3.358 7.5-7.5s-3.357-7.5-7.5-7.5z"/>
    <path d="m347.479,395h-41.24c-4.143,0-7.5,3.358-7.5,7.5s3.357,7.5 7.5,7.5h41.24c4.143,0 7.5-3.358 7.5-7.5s-3.357-7.5-7.5-7.5z"/>
    <path d="m306.239,365c-4.143,0-7.5,3.358-7.5,7.5s3.357,7.5 7.5,7.5h41.24c4.143,0 7.5-3.358 7.5-7.5s-3.357-7.5-7.5-7.5h-41.24z"/>
    <path d="m276.239,425h-41.238c-4.143,0-7.5,3.358-7.5,7.5s3.357,7.5 7.5,7.5h41.238c4.143,0 7.5-3.358 7.5-7.5s-3.357-7.5-7.5-7.5z"/>
    <path d="m276.239,395h-41.238c-4.143,0-7.5,3.358-7.5,7.5s3.357,7.5 7.5,7.5h41.238c4.143,0 7.5-3.358 7.5-7.5s-3.357-7.5-7.5-7.5z"/>
    <path d="m276.239,365h-41.238c-4.143,0-7.5,3.358-7.5,7.5s3.357,7.5 7.5,7.5h41.238c4.143,0 7.5-3.358 7.5-7.5s-3.357-7.5-7.5-7.5z"/>
  </g>
</svg>
