<?xml version="1.0" standalone="no"?>
<!DOCTYPE svg PUBLIC "-//W3C//DTD SVG 20010904//EN"
 "http://www.w3.org/TR/2001/REC-SVG-20010904/DTD/svg10.dtd">
<svg version="1.0" xmlns="http://www.w3.org/2000/svg"
 width="330.000000pt" height="344.000000pt" viewBox="0 0 330.000000 344.000000"
 preserveAspectRatio="xMidYMid meet">
<metadata>
Created by potrace 1.16, written by Peter Selinger 2001-2019
</metadata>
<g transform="translate(0.000000,344.000000) scale(0.100000,-0.100000)"
fill="#000000" stroke="none">
<path d="M960 2940 l0 -120 65 0 65 0 0 120 0 120 -65 0 -65 0 0 -120z"/>
<path d="M500 2845 l-44 -45 84 -85 85 -85 45 45 45 45 -85 85 -85 85 -45 -45z"/>
<path d="M1420 2805 l-85 -85 45 -45 45 -45 84 84 85 85 -40 45 c-21 24 -41
45 -44 45 -3 1 -44 -37 -90 -84z"/>
<path d="M937 2710 c-136 -35 -264 -156 -310 -294 -35 -103 -19 -248 39 -349
27 -48 108 -133 145 -153 l27 -13 7 69 c7 70 7 71 -25 103 -60 61 -75 101 -75
207 0 84 3 101 27 146 55 105 163 169 283 168 46 0 75 -8 127 -32 72 -35 105
-67 146 -146 23 -44 26 -63 26 -138 l0 -88 62 0 c56 0 62 2 68 23 17 64 -4
189 -47 277 -33 66 -126 153 -205 190 -57 28 -80 33 -162 36 -52 2 -112 -1
-133 -6z"/>
<path d="M290 2320 l0 -70 115 0 115 0 0 70 0 70 -115 0 -115 0 0 -70z"/>
<path d="M1530 2320 l0 -70 120 0 120 0 0 70 0 70 -120 0 -120 0 0 -70z"/>
<path d="M910 2153 c0 -14 -18 -161 -64 -528 -25 -198 -53 -418 -61 -490 -9
-71 -23 -177 -30 -235 -8 -58 -17 -133 -21 -167 l-7 -63 462 0 461 0 0 -75 0
-75 -150 0 -150 0 0 -65 0 -65 535 0 535 0 0 65 0 65 -150 0 -150 0 0 75 0 75
451 0 452 0 -6 63 c-3 34 -24 206 -47 382 -22 176 -45 361 -50 410 -5 50 -12
100 -15 112 -3 12 -9 61 -14 110 -6 48 -19 160 -30 248 -12 88 -21 161 -21
163 0 1 -434 2 -965 2 -531 0 -965 -3 -965 -7z m616 -150 c-3 -16 -8 -66 -11
-113 -3 -47 -8 -102 -11 -122 l-6 -38 -255 0 -255 0 6 33 c3 17 10 75 16 127
6 52 13 104 16 117 l6 23 250 0 250 0 -6 -27z m628 -20 c3 -27 8 -82 11 -123
3 -41 8 -87 11 -102 l6 -28 -276 0 c-152 0 -276 1 -276 3 0 1 7 65 15 142 8
77 15 143 15 148 0 4 110 7 244 7 l244 0 6 -47z m585 -65 c7 -62 15 -130 17
-150 l6 -38 -225 0 -225 0 -6 38 c-3 20 -8 69 -11 107 -3 39 -8 89 -12 113
l-5 42 224 0 224 0 13 -112z m-1257 -365 c-1 -27 -9 -109 -17 -184 -8 -75 -15
-139 -15 -142 0 -4 -118 -7 -261 -7 l-261 0 6 58 c3 31 14 117 23 190 l17 132
256 0 255 0 -3 -47z m712 5 c3 -24 10 -97 16 -163 6 -66 13 -132 16 -147 l6
-28 -324 0 -323 0 3 48 c3 56 20 229 28 290 l6 42 284 0 283 0 5 -42z m586 25
c1 -10 11 -96 23 -190 l23 -173 -232 0 c-213 0 -233 1 -238 18 -3 9 -10 78
-16 152 -5 74 -13 152 -16 173 l-6 37 231 0 c213 0 231 -1 231 -17z m-1346
-540 c-3 -27 -9 -91 -12 -143 l-7 -95 -271 -3 -271 -2 4 32 c3 18 11 79 19
134 8 56 14 107 14 113 0 8 76 11 265 11 l266 0 -7 -47z m815 -75 c7 -68 13
-133 15 -145 l3 -23 -361 0 -361 0 12 138 c6 75 12 140 12 145 1 4 151 7 335
7 l333 0 12 -122z m595 90 c7 -42 36 -247 36 -253 0 -3 -108 -5 -240 -5 l-239
0 -5 33 c-9 51 -26 210 -26 235 l0 22 235 0 234 0 5 -32z m-854 -463 l0 -75
-105 0 -105 0 0 75 0 75 105 0 105 0 0 -75z"/>
<path d="M540 1925 l-85 -85 45 -45 45 -45 85 85 85 85 -45 45 -45 45 -85 -85z"/>
</g>
</svg>
