<?xml version="1.0" encoding="iso-8859-1"?>
<!-- Generator: Adobe Illustrator 19.0.0, SVG Export Plug-In . SVG Version: 6.00 Build 0)  -->
<svg version="1.1" id="Layer_1" xmlns="http://www.w3.org/2000/svg" xmlns:xlink="http://www.w3.org/1999/xlink" x="0px" y="0px"
	 viewBox="0 0 496 496" style="enable-background:new 0 0 496 496;" xml:space="preserve">
<g>
	<g>
		<g>
			<rect x="80" y="64" width="48" height="16"/>
			<rect x="144" y="64" width="48" height="16"/>
			<rect x="208" y="64" width="48" height="16"/>
			<rect x="272" y="64" width="48" height="16"/>
			<rect x="64" y="80" width="16" height="48"/>
			<rect x="80" y="128" width="48" height="16"/>
			<rect x="128" y="80" width="16" height="48"/>
			<rect x="144" y="128" width="48" height="16"/>
			<rect x="192" y="80" width="16" height="48"/>
			<rect x="208" y="128" width="48" height="16"/>
			<rect x="256" y="80" width="16" height="48"/>
			<rect x="272" y="128" width="48" height="16"/>
			<rect x="64" y="144" width="16" height="48"/>
			<rect x="80" y="192" width="48" height="16"/>
			<rect x="128" y="144" width="16" height="48"/>
			<rect x="144" y="192" width="48" height="16"/>
			<rect x="192" y="144" width="16" height="48"/>
			<rect x="208" y="192" width="48" height="16"/>
			<rect x="256" y="144" width="16" height="48"/>
			<rect x="272" y="192" width="48" height="16"/>
			<rect x="320" y="80" width="16" height="48"/>
			<rect x="320" y="144" width="16" height="48"/>
			<path d="M472,320v-32h-64v32h-64v-32h-64v32h-24v160h-32V272h176V0H0v272h176v208h-48v16h128h16h224V320H472z M208,480h-16V272
				h16V480z M192,208v48h-48v-48h-16v48H80v-48H64v48H16v-48h48v-16H16v-48h48v-16H16V80h48V64H16V16h48v48h16V16h48v48h16V16h48v48
				h16V16h48v48h16V16h48v48h16V16h48v48h-48v16h48v48h-48v16h48v48h-48v16h48v48h-48v-48h-16v48h-48v-48h-16v48h-48v-48H192z
				 M424,304h32v16h-32V304z M296,304h32v16h-32V304z M480,480H272V336h208V480z"/>
			<polygon points="304,392 320,392 320,376 336,376 336,360 320,360 320,344 304,344 304,360 288,360 288,376 304,376 			"/>
			<rect x="416" y="360" width="48" height="16"/>
		</g>
	</g>
</g>
<g>
</g>
<g>
</g>
<g>
</g>
<g>
</g>
<g>
</g>
<g>
</g>
<g>
</g>
<g>
</g>
<g>
</g>
<g>
</g>
<g>
</g>
<g>
</g>
<g>
</g>
<g>
</g>
<g>
</g>
</svg>
