<?xml version="1.0" standalone="no"?>
<!DOCTYPE svg PUBLIC "-//W3C//DTD SVG 20010904//EN"
 "http://www.w3.org/TR/2001/REC-SVG-20010904/DTD/svg10.dtd">
<svg version="1.0" xmlns="http://www.w3.org/2000/svg"
 width="650.000000pt" height="481.000000pt" viewBox="0 0 650.000000 481.000000"
 preserveAspectRatio="xMidYMid meet">
<metadata>
Created by potrace 1.16, written by Peter Selinger 2001-2019
</metadata>
<g transform="translate(0.000000,481.000000) scale(0.100000,-0.100000)"
fill="#000000" stroke="none">
<path d="M887 4679 c-23 -3 -48 -19 -70 -42 -41 -41 -45 -62 -49 -237 -3 -99
-1 -114 12 -110 31 10 2892 6 2895 -5 2 -5 7 -28 12 -50 l8 -40 3 50 3 50 762
-2 c419 -2 880 -4 1025 -6 l262 -4 0 118 c0 151 -26 225 -93 260 -18 10 -286
12 -1122 9 -462 -1 -469 -2 -445 -20 14 -11 27 -15 28 -9 2 5 8 7 13 3 5 -3
15 -2 22 3 6 4 28 8 49 8 28 0 34 -3 26 -12 -6 -7 -19 -13 -29 -13 -24 0 -33
-17 -12 -23 10 -3 -23 -5 -74 -4 -83 0 -91 2 -83 17 13 25 4 29 -36 17 -37
-11 -44 -23 -16 -29 9 -3 -8 -5 -38 -5 -37 -1 -48 1 -35 7 11 4 25 5 30 2 6
-3 -1 6 -15 21 -29 31 -40 34 -40 11 0 -12 -7 -14 -30 -9 -19 4 -30 3 -30 -4
0 -6 -10 -11 -22 -12 -22 0 -22 -1 -3 -9 14 -6 4 -8 -35 -8 -30 0 -47 2 -37 5
17 5 23 19 10 26 -5 2 -21 -1 -38 -8 -25 -11 -27 -13 -10 -18 11 -2 -244 -5
-568 -5 -425 -1 -586 2 -581 10 5 8 0 9 -17 3 -34 -11 -175 -9 -231 4 -26 5
-94 8 -150 6 -57 -2 -107 -4 -113 -5 -18 0 -120 17 -110 19 6 0 11 10 12 21 2
19 -7 20 -501 22 -277 2 -519 0 -539 -3z"/>
<path d="M3685 2008 c-4 -14 -2 -83 3 -154 8 -117 9 -122 11 -49 l1 80 1017 0
1018 0 0 63 0 63 -1015 2 c-625 1 -1018 6 -1022 11 -4 6 -10 -2 -13 -16z"/>
<path d="M3680 875 l-5 -650 -465 0 c-836 0 -2334 16 -2380 25 -80 16 -80 16
-80 -39 0 -55 0 -56 85 -65 129 -15 4841 -32 4878 -17 24 9 27 16 27 53 l0 43
-1025 -3 -1025 -2 -2 652 -3 653 -5 -650z"/>
</g>
</svg>
