<?xml version="1.0" standalone="no"?>
<!DOCTYPE svg PUBLIC "-//W3C//DTD SVG 20010904//EN"
 "http://www.w3.org/TR/2001/REC-SVG-20010904/DTD/svg10.dtd">
<svg version="1.0" xmlns="http://www.w3.org/2000/svg"
 width="653.000000pt" height="484.000000pt" viewBox="0 0 653.000000 484.000000"
 preserveAspectRatio="xMidYMid meet">
<metadata>
Created by potrace 1.16, written by Peter Selinger 2001-2019
</metadata>
<g transform="translate(0.000000,484.000000) scale(0.100000,-0.100000)"
fill="#000000" stroke="none">
<path d="M1291 4823 l-1284 -3 8 -2403 c4 -1321 8 -2403 10 -2405 1 -2 1464 0
3251 4 l3247 7 -6 1680 c-4 924 -7 2006 -7 2404 l0 723 -1967 -2 c-1083 -2
-2546 -4 -3252 -5z m4329 -123 c10 -6 -96 -10 -310 -10 -179 0 -319 -4 -312
-9 9 -5 11 -17 6 -34 -6 -26 -8 -27 -88 -28 -44 0 -380 -2 -746 -3 -366 -2
-669 -4 -673 -5 -5 0 -5 -59 -1 -130 5 -91 3 -130 -5 -135 -8 -5 -11 31 -11
132 l0 140 -72 -3 c-40 -2 -78 -3 -85 -4 -9 -1 -11 -34 -7 -130 3 -83 1 -132
-6 -136 -7 -4 -10 41 -10 133 l0 139 -137 -2 c-76 -1 -142 -3 -146 -4 -5 0 -7
-60 -5 -132 2 -71 1 -132 -4 -135 -4 -3 -8 59 -8 136 0 126 -2 141 -16 136 -9
-3 -19 -6 -23 -6 -4 0 -7 -59 -6 -131 0 -72 -3 -133 -7 -135 -4 -3 -8 57 -8
133 l0 138 -858 0 c-471 0 -873 2 -892 5 -19 3 -73 3 -120 0 -89 -6 -123 -3
-115 10 3 5 1 11 -5 15 -17 10 -11 25 13 35 18 7 13 9 -28 12 -84 5 1556 13
3155 15 965 2 1520 -1 1530 -7z m-1923 -410 l11 -23 4 23 3 24 955 -2 c525 -1
984 -5 1020 -8 l65 -6 -1 -1132 -1 -1131 -879 -2 c-484 -1 -945 -2 -1026 -3
l-148 0 0 -63 0 -63 1028 -2 1027 -3 3 -823 2 -824 -22 -6 c-13 -3 -474 -6
-1025 -6 l-1003 0 -2 83 -2 82 -3 -82 c-3 -56 -8 -83 -16 -83 -7 0 -349 0
-762 0 -1081 0 -2010 10 -2085 21 l-65 10 -4 2014 c-2 1108 -2 2016 0 2017 7
4 1809 13 2369 12 l545 0 12 -24z m1611 -4157 c-218 -2 -578 -2 -800 0 -222 1
-43 2 397 2 440 0 621 -1 403 -2z"/>
</g>
</svg>
