<?xml version="1.0" standalone="no"?>
<!DOCTYPE svg PUBLIC "-//W3C//DTD SVG 20010904//EN"
 "http://www.w3.org/TR/2001/REC-SVG-20010904/DTD/svg10.dtd">
<svg version="1.0" xmlns="http://www.w3.org/2000/svg"
 width="800.000000pt" height="636.000000pt" viewBox="0 0 800.000000 636.000000"
 preserveAspectRatio="xMidYMid meet">
<metadata>
Created by potrace 1.16, written by Peter Selinger 2001-2019
</metadata>
<g transform="translate(0.000000,636.000000) scale(0.100000,-0.100000)"
fill="#000000" stroke="none">
<path d="M2620 5993 c-340 -19 -628 -99 -750 -209 l-40 -36 0 -1454 0 -1454
1005 0 1005 0 0 1442 0 1441 -44 43 c-55 52 -201 125 -316 158 -215 61 -542
87 -860 69z m644 -162 c189 -34 317 -79 409 -143 l27 -19 0 -1350 0 -1349
-870 0 -870 0 0 1353 c0 1290 1 1355 18 1370 60 54 285 125 462 146 52 6 109
13 125 15 17 2 154 3 305 1 228 -2 295 -6 394 -24z"/>
<path d="M2440 3320 l0 -190 390 0 390 0 0 190 0 190 -390 0 -390 0 0 -190z
m650 -5 l0 -55 -255 0 -255 0 0 55 0 55 255 0 255 0 0 -55z"/>
<path d="M4567 5765 c-22 -7 -50 -24 -64 -37 -57 -53 -53 70 -53 -1847 0
-1224 3 -1778 11 -1798 15 -42 68 -92 109 -103 22 -6 460 -10 1185 -10 1219 1
1195 0 1247 47 11 10 29 36 39 58 18 38 19 113 19 1790 0 1240 -3 1762 -11
1790 -14 50 -64 100 -114 114 -28 8 -383 11 -1185 11 -944 -1 -1152 -3 -1183
-15z m2341 -137 c17 -17 17 -3489 0 -3506 -9 -9 -280 -12 -1160 -12 l-1148 0
-10 26 c-6 16 -10 653 -10 1749 0 1554 2 1725 16 1739 14 14 133 16 1158 16
875 0 1145 -3 1154 -12z"/>
<path d="M5592 4287 c-238 -301 -432 -549 -432 -552 0 -3 122 -5 270 -5 149 0
270 -2 270 -5 0 -6 -217 -769 -225 -793 -3 -8 -1 -12 4 -10 6 1 203 248 440
548 l431 545 -274 5 -273 5 113 395 c63 217 113 399 111 404 -2 5 -198 -237
-435 -537z"/>
<path d="M1830 1616 l0 -1184 26 -31 c14 -17 42 -35 62 -41 25 -8 318 -10 932
-8 969 3 929 1 967 57 17 24 18 98 21 1209 l2 1182 -305 0 -305 0 0 -155 0
-155 -415 0 -415 0 0 155 0 155 -285 0 -285 0 0 -1184z m430 947 c0 -127 15
-168 70 -195 32 -16 77 -18 490 -18 434 0 457 1 487 20 52 31 63 65 63 190 l0
110 165 0 165 0 0 -1090 0 -1090 -870 0 -870 0 0 1090 0 1090 150 0 150 0 0
-107z"/>
<path d="M2729 2067 c-68 -36 -103 -93 -107 -176 -4 -72 9 -112 52 -159 80
-89 242 -85 319 7 36 43 50 94 45 162 -8 112 -93 189 -208 189 -40 0 -70 -7
-101 -23z m153 -136 c9 -9 20 -28 23 -43 6 -22 1 -33 -23 -58 -38 -38 -66 -38
-103 -1 -33 33 -36 56 -13 89 30 43 80 49 116 13z"/>
</g>
</svg>
